<svg viewBox="0 0 128 128" fill="none" xmlns="http://www.w3.org/2000/svg">
  <rect x="14" y="14" width="100" height="100" rx="24" fill="#F8FAFC" stroke="#CBD5E1" stroke-width="4"/>
  <path d="M 46 38 C 70 28, 90 50, 82 86" stroke="#38BDF8" stroke-width="3" stroke-linecap="round" stroke-dasharray="0 10" fill="none"/>
  <circle cx="46" cy="38" r="6" fill="#F97316"/>
  <circle cx="82" cy="86" r="6" fill="#F97316"/>
  <path d="M40 46L26 64L40 82" stroke="#0F172A" stroke-width="8" stroke-linecap="round" stroke-linejoin="round"/>
  <path d="M88 46L102 64L88 82" stroke="#0F172A" stroke-width="8" stroke-linecap="round" stroke-linejoin="round"/>
  <g transform="rotate(45, 64, 64)">
    <rect x="60" y="20" width="8" height="46" rx="4" fill="#2563EB"/>
    <rect x="58" y="68" width="12" height="8" rx="2" fill="#94A3B8"/>
    <path d="M 58 78 C 58 92, 64 104, 64 104 C 64 104, 70 92, 70 78 Z" fill="#38BDF8"/>
    <path d="M 62 82 L 62 94" stroke="#E0F2FE" stroke-width="2" stroke-linecap="round"/>
  </g>
</svg>
